PathFileType	4	(X/Y/Z)	/Users/itak/Documents/Research/Walk-IL/dataset/trc/00585_00009.trc
DataRate	CameraRate	NumFrames	NumMarkers	Units	OrigDataRate	OrigDataStartFrame	OrigNumFrames
100.000000	100.000000	4	74	mm	100.000000	74	99
Frame#	Time	RFHD			RWTS			STRN			CLAV			RWPS			RFRA			RUPA			RAEL			RAOL			RBHD			LBHD			RSHO			C7			LBAK			LWTS			RBAK			LSHO			RKNE			LHIP			LWPS			RTIP			LAEL			LFHD			LUPA			LFRA			LAOL			RMT5			LTOE			RTOE			RMT1			RANK			T10			RHEE			LTHI			L3			RHIP			RPSI			RASI			LMT1			LPSI			LHEE			RTHI			LANK			LTIP			LKNE			RHTS			RHPS			LASI			RIFD			LHTS			LMT5			LHPS			LIFD			*53			*54			*55			*56			*57			*58			*59			*60			*61			*62			*63			*64			*65			*66			*67			*68			*69			*70			*71			*72			*73			
		X1	Y1	Z1	X2	Y2	Z2	X3	Y3	Z3	X4	Y4	Z4	X5	Y5	Z5	X6	Y6	Z6	X7	Y7	Z7	X8	Y8	Z8	X9	Y9	Z9	X10	Y10	Z10	X11	Y11	Z11	X12	Y12	Z12	X13	Y13	Z13	X14	Y14	Z14	X15	Y15	Z15	X16	Y16	Z16	X17	Y17	Z17	X18	Y18	Z18	X19	Y19	Z19	X20	Y20	Z20	X21	Y21	Z21	X22	Y22	Z22	X23	Y23	Z23	X24	Y24	Z24	X25	Y25	Z25	X26	Y26	Z26	X27	Y27	Z27	X28	Y28	Z28	X29	Y29	Z29	X30	Y30	Z30	X31	Y31	Z31	X32	Y32	Z32	X33	Y33	Z33	X34	Y34	Z34	X35	Y35	Z35	X36	Y36	Z36	X37	Y37	Z37	X38	Y38	Z38	X39	Y39	Z39	X40	Y40	Z40	X41	Y41	Z41	X42	Y42	Z42	X43	Y43	Z43	X44	Y44	Z44	X45	Y45	Z45	X46	Y46	Z46	X47	Y47	Z47	X48	Y48	Z48	X49	Y49	Z49	X50	Y50	Z50	X51	Y51	Z51	X52	Y52	Z52	X53	Y53	Z53	X54	Y54	Z54	X55	Y55	Z55	X56	Y56	Z56	X57	Y57	Z57	X58	Y58	Z58	X59	Y59	Z59	X60	Y60	Z60	X61	Y61	Z61	X62	Y62	Z62	X63	Y63	Z63	X64	Y64	Z64	X65	Y65	Z65	X66	Y66	Z66	X67	Y67	Z67	X68	Y68	Z68	X69	Y69	Z69	X70	Y70	Z70	X71	Y71	Z71	X72	Y72	Z72	X73	Y73	Z73	X74	Y74	Z74	

75	0.74	1045.100830078125	1621.844848632812	898.4934692382812	792.5410766601562	1007.166381835938	964.2565307617188	1034.252319335938	1251.58837890625	804.4358520507812	1021.044555664062	1362.537475585938	798.3731689453125	738.0341186523438	969.0413818359375	1014.658508300781	626.4476928710938	1116.641845703125	943.6539306640625	761.6398315429688	1402.524169921875	890.2833251953125	614.1282958984375	1170.020141601562	928.27685546875	571.2447509765625	1151.650756835938	878.5543823242188	927.0006713867188	1631.300048828125	823.6612548828125	1030.337890625	1630.478759765625	694.2780151367188	833.2442626953125	1439.488037109375	855.238037109375	878.4588623046875	1463.517211914062	703.5340576171875	894.6569213867188	1417.4755859375	604.8651123046875	1138.060180664062	1211.05078125	742.127197265625	769.7017822265625	1344.176635742188	725.993408203125	1022.489807128906	1448.572509765625	602.8276977539062	1095.876586914062	565.0955810546875	1043.249267578125	1031.073120117188	894.84326171875	572.706787109375	1193.564819335938	1144.708862304688	754.8959350585938	1150.651000976562	425.121337890625	1062.783203125	1097.921508789062	1145.2373046875	518.1961669921875	1130.512451171875	1623.548217773438	782.1203002929688	1063.35693359375	1328.3330078125	525.5756225585938	1134.677734375	1140.342041015625	585.2413330078125	1018.320190429688	1078.022827148438	501.7688598632812	1272.430541992188	64.94679260253906	1138.184814453125	801.7100830078125	38.12491989135742	604.4985961914062	1363.06298828125	112.2944030761719	1149.688354492188	1345.87060546875	111.4709320068359	1081.627563476562	1184.884887695312	57.39836502075195	1042.203247070312	830.462158203125	1189.40478515625	659.6487426757812	1176.393798828125	66.62588500976562	965.077392578125	1080.123657226562	617.2157592773438	643.474365234375	830.1539916992188	1062.38818359375	668.4400024414062	847.0578002929688	905.1786499023438	903.3048095703125	786.524169921875	948.2879028320312	734.1748657226562	941.999267578125	947.8289794921875	891.8895874023438	750.2518310546875	86.38568878173828	618.4678955078125	852.2730712890625	957.4220581054688	621.5360717773438	660.6214599609375	241.93505859375	516.4136962890625	934.3234252929688	798.1663208007812	962.4140014648438	710.1853637695312	176.9180755615234	489.6408386230469	889.825927734375	304.1763610839844	582.080078125	1079.442016601562	443.6305541992188	696.3832397460938	844.2540283203125	989.955322265625	1027.43408203125	794.777587890625	941.3287353515625	1057.693603515625	1072.919799804688	928.0392456054688	652.7459106445312	871.388671875	916.4076538085938	1007.370361328125	1184.112182617188	1224.349487304688	806.5916748046875	772.6987915039062	80.71019744873047	514.6744995117188	1206.864379882812	1159.71875	811.7355346679688	1163.727294921875	1209.844970703125	898.6568603515625	nan	nan	nan	nan	nan	nan	nan	nan	nan	nan	nan	nan	nan	nan	nan	nan	nan	nan	nan	nan	nan	nan	nan	nan	nan	nan	nan	nan	nan	nan	nan	nan	nan	nan	nan	nan	nan	nan	nan	nan	nan	nan	nan	nan	nan	nan	nan	nan	nan	nan	nan	nan	nan	nan	nan	nan	nan	nan	nan	nan	nan	nan	nan	
76	0.75	1072.322387695312	1622.404541015625	919.4064331054688	824.41845703125	1008.84619140625	985.4502563476562	1063.651489257812	1253.372802734375	824.5364990234375	1050.029052734375	1364.026245117188	818.3751220703125	769.5913696289062	969.441650390625	1034.537475585938	656.59521484375	1116.04248046875	962.1209716796875	790.755615234375	1403.765380859375	911.1139526367188	643.9525756835938	1169.326538085938	946.7122802734375	601.69970703125	1150.924194335938	896.2432861328125	954.3026123046875	1631.433349609375	844.6452026367188	1057.681762695312	1631.010131835938	715.2967529296875	862.6143188476562	1440.181762695312	876.2474365234375	907.068603515625	1464.303588867188	724.8826293945312	922.3480224609375	1418.38330078125	626.4288330078125	1162.986450195312	1208.70556640625	757.6371459960938	798.62841796875	1345.369384765625	747.7893676757812	1049.626831054688	1448.999267578125	623.1194458007812	1125.166625976562	560.3375854492188	1061.010986328125	1060.934936523438	896.5477294921875	593.9777221679688	1218.288330078125	1141.834228515625	768.3597412109375	1183.234008789062	421.87646484375	1080.966796875	1120.806274414062	1146.286499023438	532.2677612304688	1157.855102539062	1624.469604492188	803.1302490234375	1088.419799804688	1329.75439453125	543.41162109375	1157.728637695312	1140.208374023438	599.1199951171875	1040.041381835938	1080.679443359375	516.072021484375	1318.22216796875	61.32114028930664	1158.445678710938	820.95703125	42.38226318359375	613.124755859375	1408.203002929688	110.5353775024414	1171.516357421875	1389.194213867188	113.6553802490234	1103.25	1229.568359375	54.2365608215332	1063.177612304688	859.0396118164062	1190.763549804688	681.4815673828125	1220.462646484375	65.40936279296875	986.19677734375	1113.437133789062	618.7840576171875	666.319580078125	859.5025634765625	1064.08544921875	691.0745239257812	879.3154296875	906.2269287109375	925.4818115234375	817.1517333984375	950.2905883789062	757.1876220703125	973.9533081054688	950.1027221679688	913.146484375	773.0313110351562	96.58075714111328	628.4828491210938	882.0867309570312	959.033447265625	644.2799072265625	693.1414794921875	262.578857421875	531.0517578125	965.143310546875	796.1746215820312	983.6085815429688	739.3707885742188	195.5736694335938	502.553955078125	923.1978759765625	313.9299621582031	600.7377319335938	1114.900024414062	444.935302734375	719.917236328125	875.1605834960938	992.5353393554688	1050.132690429688	825.7002563476562	942.4744873046875	1078.654296875	1102.972290039062	930.080322265625	673.50830078125	903.9853515625	919.6853637695312	1030.148193359375	1209.445068359375	1220.224731445312	822.4071044921875	795.4840087890625	93.24923706054688	524.6615600585938	1232.087890625	1155.426391601562	825.525146484375	1188.88916015625	1203.083129882812	913.8644409179688	nan	nan	nan	nan	nan	nan	nan	nan	nan	nan	nan	nan	nan	nan	nan	nan	nan	nan	nan	nan	nan	nan	nan	nan	nan	nan	nan	nan	nan	nan	nan	nan	nan	nan	nan	nan	nan	nan	nan	nan	nan	nan	nan	nan	nan	nan	nan	nan	nan	nan	nan	nan	nan	nan	nan	nan	nan	nan	nan	nan	nan	nan	nan	
77	0.76	1099.570068359375	1622.089721679688	940.0804443359375	858.3558959960938	1009.377319335938	1007.250366210938	1092.904296875	1253.753662109375	844.2982788085938	1079.114135742188	1364.179443359375	838.1968383789062	803.8397827148438	968.5956420898438	1055.495971679688	688.453857421875	1113.5908203125	982.48779296875	820.2881469726562	1403.440185546875	932.5997924804688	675.1911010742188	1166.706176757812	967.0858764648438	633.3197631835938	1148.059936523438	916.27685546875	981.6310424804688	1630.447143554688	865.3341674804688	1085.075561523438	1630.360107421875	736.0430908203125	892.2183227539062	1439.578857421875	897.540283203125	935.6715698242188	1464.005859375	746.2680053710938	950.0191040039062	1418.107666015625	648.0086669921875	1188.0791015625	1204.733642578125	772.5237426757812	827.3158569335938	1345.462890625	769.9260864257812	1076.858520507812	1448.13134765625	643.2154541015625	1154.611572265625	555.0919799804688	1078.717163085938	1090.877197265625	896.9232177734375	615.2670288085938	1242.968505859375	1137.197021484375	781.1453247070312	1214.21533203125	417.4789123535156	1097.723388671875	1143.2783203125	1146.073120117188	545.928955078125	1185.232788085938	1624.462280273438	823.9202270507812	1113.34912109375	1329.772094726562	561.1852416992188	1180.459228515625	1138.664428710938	612.5127563476562	1061.193359375	1082.24853515625	530.1241455078125	1355.021118164062	56.7952995300293	1173.257202148438	846.1392822265625	48.40449523925781	624.6234130859375	1445.330932617188	105.319709777832	1188.381225585938	1424.826293945312	112.3178329467773	1119.704345703125	1265.968505859375	51.15609741210938	1078.023193359375	887.2001342773438	1190.926391601562	703.41259765625	1256.918579101562	64.09473419189453	1001.230773925781	1148.13720703125	619.6287841796875	690.1929931640625	888.4315185546875	1064.498657226562	713.6705322265625	910.9616088867188	905.6580810546875	947.473388671875	847.4472045898438	950.639892578125	779.8914794921875	1005.448547363281	951.1594848632812	934.5638427734375	800.9000854492188	107.1685562133789	641.2131958007812	911.646484375	959.1346435546875	666.6597290039062	728.4108276367188	280.9569091796875	548.2084350585938	995.4472045898438	792.8548583984375	1004.768005371094	772.3889770507812	212.9586029052734	518.0711059570312	959.3019409179688	322.8954772949219	621.5530395507812	1152.61083984375	445.9563293457031	745.0936889648438	908.6760864257812	994.137939453125	1072.946044921875	859.5869140625	942.4932250976562	1100.128540039062	1132.805419921875	930.952392578125	694.3452758789062	939.3158569335938	922.0390014648438	1052.99609375	1235.21923828125	1214.479248046875	837.2606811523438	823.6827392578125	106.2764739990234	537.4820556640625	1257.526611328125	1149.459716796875	838.48779296875	1214.640380859375	1194.852172851562	927.9470825195312	nan	nan	nan	nan	nan	nan	nan	nan	nan	nan	nan	nan	nan	nan	nan	nan	nan	nan	nan	nan	nan	nan	nan	nan	nan	nan	nan	nan	nan	nan	nan	nan	nan	nan	nan	nan	nan	nan	nan	nan	nan	nan	nan	nan	nan	nan	nan	nan	nan	nan	nan	nan	nan	nan	nan	nan	nan	nan	nan	nan	nan	nan	nan	
78	0.77	1126.914794921875	1620.912231445312	960.5072021484375	894.401123046875	1008.755798339844	1029.686157226562	1121.986938476562	1252.66455078125	863.7155151367188	1108.26025390625	1362.9521484375	857.864013671875	840.8447875976562	966.5891723632812	1077.662475585938	722.0623779296875	1109.196533203125	1004.830688476562	850.1472778320312	1401.380249023438	954.7280883789062	707.8515014648438	1162.0390625	989.4454956054688	666.0988159179688	1142.860595703125	938.72412109375	1009.048156738281	1628.412719726562	885.7179565429688	1112.566284179688	1628.548461914062	756.4995727539062	921.929931640625	1437.593383789062	919.0814208984375	964.1878662109375	1462.546997070312	767.6500244140625	977.6266479492188	1416.58056640625	669.56494140625	1213.419311523438	1199.07958984375	786.8466186523438	855.736572265625	1344.288818359375	792.3381958007812	1104.157348632812	1446.012573242188	663.0972290039062	1184.068481445312	549.4876098632812	1096.273681640625	1120.914306640625	895.7827758789062	636.5904541015625	1267.62158203125	1130.721923828125	793.3385009765625	1243.679443359375	411.9465637207031	1113.114379882812	1165.414672851562	1144.657592773438	559.2981567382812	1212.695678710938	1623.494995117188	844.4573974609375	1138.192504882812	1328.3994140625	578.942626953125	1202.968383789062	1135.723999023438	625.5176391601562	1081.903930664062	1082.762817382812	544.02685546875	1383.370727539062	51.76389312744141	1183.076049804688	877.3704223632812	55.68442916870117	639.029052734375	1475.034545898438	97.11138153076172	1200.157958984375	1453.490478515625	107.328498840332	1130.920043945312	1294.423706054688	47.9000129699707	1087.380737304688	915.0281982421875	1189.7412109375	725.3622436523438	1285.943237304688	61.97476577758789	1010.788024902344	1184.14892578125	619.7500610351562	714.9365844726562	917.0260009765625	1063.4541015625	736.0848999023438	941.8098754882812	903.5336303710938	969.2061767578125	877.3194580078125	949.1801147460938	802.1159057617188	1036.260864257812	950.8111572265625	956.0344848632812	833.8489990234375	117.4259643554688	656.7310180664062	940.987060546875	957.5209350585938	688.5453491210938	766.2501831054688	296.6244812011719	567.9072875976562	1025.18359375	788.5042114257812	1025.879516601562	809.0389404296875	228.4971923828125	536.2310791015625	998.0513305664062	330.9085693359375	644.4076538085938	1192.513916015625	446.8009948730469	771.7025756835938	944.934326171875	994.7702026367188	1095.80517578125	896.5801391601562	941.4523315429688	1122.15234375	1162.412841796875	930.4921264648438	715.284912109375	977.4459228515625	923.4330444335938	1075.863403320312	1261.51806640625	1207.047729492188	851.1808471679688	857.2579956054688	119.0564575195312	553.200439453125	1283.1884765625	1141.74072265625	850.700439453125	1241.124145507812	1185.248413085938	941.0722045898438	nan	nan	nan	nan	nan	nan	nan	nan	nan	nan	nan	nan	nan	nan	nan	nan	nan	nan	nan	nan	nan	nan	nan	nan	nan	nan	nan	nan	nan	nan	nan	nan	nan	nan	nan	nan	nan	nan	nan	nan	nan	nan	nan	nan	nan	nan	nan	nan	nan	nan	nan	nan	nan	nan	nan	nan	nan	nan	nan	nan	nan	nan	nan	
